<svg width="123" height="73" viewBox="0 0 123 73" fill="none" xmlns="http://www.w3.org/2000/svg">
<path d="M10.4969 18.4811V28.045C10.4969 31.2484 8.88555 32.8501 5.66281 32.8501H4.83411C1.61137 32.8501 0 31.2484 0 28.045V4.29685C0 1.43228 1.61137 0 4.83411 0H5.66281C8.88555 0 10.4969 1.60169 10.4969 4.80508V14.369L8.05685 14.0918V4.80508C8.05685 3.23419 7.25884 2.44874 5.66281 2.44874H4.83411C3.23809 2.44874 2.44007 3.06478 2.44007 4.29685V28.045C2.44007 29.6159 3.23809 30.4014 4.83411 30.4014H5.66281C7.25884 30.4014 8.05685 29.6159 8.05685 28.045V18.4811H10.4969Z" fill="#B73838"/>
<path d="M20.1864 30.078V9.42535H22.6264V30.078H23.1789L23.5472 32.5267H20.1864V31.464L19.2195 32.5267H17.8844C16.4725 32.5267 15.3369 32.1263 14.4775 31.3254C13.6488 30.4938 13.2345 29.4619 13.2345 28.2299V11.8741H12.3137L12.7741 9.42535H15.6745V28.6919C15.6745 29.2463 15.7666 29.6159 15.9508 29.8007C16.1349 29.9856 16.5032 30.078 17.0557 30.078H20.1864Z" fill="#B73838"/>
<path d="M25.546 32.5267V2.63356H24.7173L25.0856 0.184811H27.986V30.078H29.5974L29.2291 32.5267H25.546Z" fill="#B73838"/>
<path d="M36.6457 30.078V32.5267H34.4358C33.6992 32.5267 33.1007 32.3111 32.6403 31.8799C32.2106 31.4178 31.9958 30.8172 31.9958 30.078V11.8741H30.0621L30.4304 9.42535H31.9958V2.63356H31.1671L31.5354 0.184811H34.4358V9.42535H36.6457L36.2774 11.8741H34.4358V30.078H36.6457Z" fill="#B73838"/>
<path d="M45.4539 30.078V9.42535H47.894V30.078H48.4465L48.8148 32.5267H45.4539V31.464L44.4871 32.5267H43.152C41.7401 32.5267 40.6045 32.1263 39.7451 31.3254C38.9164 30.4938 38.502 29.4619 38.502 28.2299V11.8741H37.5812L38.0416 9.42535H40.9421V28.6919C40.9421 29.2463 41.0342 29.6159 41.2183 29.8007C41.4025 29.9856 41.7708 30.078 42.3233 30.078H45.4539Z" fill="#B73838"/>
<path d="M53.0234 9.42535V11.1811L54.0823 9.42535H56.4303V12.1513H53.0234V32.5267H50.5833V11.8741H49.7546L50.1229 9.42535H53.0234Z" fill="#B73838"/>
<path d="M62.2438 32.5267C60.832 32.5267 59.6963 32.1263 58.8369 31.3254C58.0082 30.4938 57.5939 29.4619 57.5939 28.2299V13.7222C57.5939 12.3053 57.9929 11.2427 58.7909 10.5342C59.6196 9.79498 60.7859 9.42535 62.2899 9.42535H62.3819C62.7809 9.42535 63.1646 9.47156 63.5329 9.56396C63.9319 9.65637 64.3002 9.79498 64.6379 9.97979V9.42535H67.0779V30.078H67.6304L67.9987 32.5267H64.6379V31.3716L63.579 32.5267H62.2438ZM61.4151 11.8741C60.8626 11.8741 60.4943 11.9665 60.3102 12.1513C60.126 12.3361 60.0339 12.7057 60.0339 13.2602V28.6919C60.0339 29.2463 60.126 29.6159 60.3102 29.8007C60.4943 29.9856 60.8626 30.078 61.4151 30.078H64.6379V11.8741H61.4151Z" fill="#B73838"/>
<path d="M88.3678 28.045C88.3678 31.2176 86.649 32.8193 83.2114 32.8501H83.0273C79.5897 32.7885 77.8709 31.1868 77.8709 28.045V4.29685C77.8709 1.43228 79.4822 0 82.705 0H83.5337C86.7564 0 88.3678 1.60169 88.3678 4.80508V11.7355L85.9277 11.4583V4.80508C85.9277 3.23419 85.1297 2.44874 83.5337 2.44874H82.705C81.1089 2.44874 80.3109 3.06478 80.3109 4.29685V28.045C80.3109 28.8151 80.5258 29.4003 80.9555 29.8007C81.3852 30.1704 82.0758 30.3706 83.0273 30.4014H83.2114C84.1936 30.3706 84.8842 30.1704 85.2832 29.8007C85.7129 29.4003 85.9277 28.8151 85.9277 28.045V18.4811H83.1654L83.4416 16.0323H88.3678V28.045Z" fill="#B73838"/>
<path d="M91.7553 4.34306H93.5968L92.3538 8.03927H90.5122L91.7553 4.34306ZM90.6043 32.5267V11.8741H89.9597L90.328 9.42535H93.0444V32.5267H90.6043Z" fill="#B73838"/>
<path d="M96.1783 32.5267V2.63356H95.3495L95.7179 0.184811H98.6183V30.078H100.23L99.8614 32.5267H96.1783Z" fill="#B73838"/>
<path d="M94.9787 31.5472H95.9548V32.5267H94.9787V31.5472Z" fill="#B73838"/>
<path d="M96.6872 30.6786V25.1343C96.6872 23.8529 97.3317 23.2122 98.6208 23.2122H98.8234C100.113 23.2122 100.757 23.8529 100.757 25.1343V27.3335L99.781 27.2226V25.1343C99.781 24.7523 99.7197 24.4998 99.5969 24.3765C99.4741 24.2533 99.2163 24.1917 98.8234 24.1917H98.6208C98.2402 24.1917 97.9824 24.2533 97.8474 24.3765C97.7246 24.4998 97.6632 24.7523 97.6632 25.1343V30.6786C97.6632 31.0605 97.7246 31.3131 97.8474 31.4363C97.9824 31.5595 98.2402 31.6211 98.6208 31.6211H98.8234C99.2163 31.6211 99.4741 31.5595 99.5969 31.4363C99.7197 31.3131 99.781 31.0605 99.781 30.6786V28.6642H100.757V30.6786C100.757 31.96 100.113 32.6006 98.8234 32.6006H98.6208C97.3317 32.6006 96.6872 31.96 96.6872 30.6786Z" fill="#B73838"/>
<path d="M104.712 25.1343C104.712 24.7523 104.65 24.4998 104.528 24.3765C104.405 24.2533 104.147 24.1917 103.754 24.1917H103.423C103.042 24.1917 102.784 24.2533 102.649 24.3765C102.526 24.4998 102.465 24.7523 102.465 25.1343V30.6786C102.465 31.0605 102.526 31.3131 102.649 31.4363C102.784 31.5595 103.042 31.6211 103.423 31.6211H103.754C104.147 31.6211 104.405 31.5595 104.528 31.4363C104.65 31.3131 104.712 31.0605 104.712 30.6786V25.1343ZM101.489 30.6786V25.1343C101.489 23.8529 102.133 23.2122 103.423 23.2122H103.754C105.043 23.2122 105.688 23.8529 105.688 25.1343V30.6786C105.688 31.96 105.043 32.6006 103.754 32.6006H103.423C102.133 32.6006 101.489 31.96 101.489 30.6786Z" fill="#B73838"/>
<path d="M110.323 32.5267H109.347V24.8201C109.347 24.5983 109.31 24.4505 109.236 24.3765C109.163 24.3026 109.015 24.2657 108.794 24.2657H107.542V32.5267H106.566V24.2657H106.235L106.382 23.2862H107.542V23.7112L107.929 23.2862H108.463C109.101 23.2862 109.592 23.4956 109.936 23.9145L110.507 23.2862H111.225C111.79 23.2862 112.238 23.4463 112.57 23.7667C112.913 24.087 113.085 24.4998 113.085 25.0049V31.5472H113.453L113.269 32.5267H112.109V24.8201C112.109 24.5983 112.072 24.4505 111.999 24.3765C111.925 24.3026 111.778 24.2657 111.557 24.2657H110.176C110.274 24.4874 110.323 24.7339 110.323 25.0049V32.5267Z" fill="#B73838"/>
<path d="M114.096 31.5472H115.072V32.5267H114.096V31.5472Z" fill="#B73838"/>
<path d="M117.664 32.5267C117.099 32.5267 116.645 32.3665 116.301 32.0462C115.97 31.7135 115.804 31.3008 115.804 30.808V25.0049C115.804 24.4382 115.964 24.0131 116.283 23.7297C116.615 23.434 117.081 23.2862 117.683 23.2862H117.719C117.879 23.2862 118.033 23.3046 118.18 23.3416C118.339 23.3786 118.487 23.434 118.622 23.5079V23.2862H119.598V31.5472H119.819L119.966 32.5267H118.622V32.0647L118.198 32.5267H117.664ZM117.333 24.2657C117.112 24.2657 116.964 24.3026 116.891 24.3765C116.817 24.4505 116.78 24.5983 116.78 24.8201V30.9928C116.78 31.2145 116.817 31.3624 116.891 31.4363C116.964 31.5102 117.112 31.5472 117.333 31.5472H118.622V24.2657H117.333Z" fill="#B73838"/>
<path d="M121.637 23.2862V23.9884L122.061 23.2862H123V24.3765H121.637V32.5267H120.661V24.2657H120.33L120.477 23.2862H121.637Z" fill="#B73838"/>
<path d="M61.232 40.6122L65.1082 52.9832H77.6517L67.5038 60.6289L71.38 73L61.232 65.3543L51.0841 73L54.9603 60.6289L44.8124 52.9832H57.3559L61.232 40.6122Z" fill="url(#paint0_linear_243_5461)"/>
<path d="M102.092 40.6122L106.097 52.9832H119.059L108.573 60.6289L112.578 73L102.092 65.3543L91.6056 73L95.6109 60.6289L85.1248 52.9832H98.0864L102.092 40.6122Z" fill="url(#paint1_linear_243_5461)"/>
<path d="M20.3723 40.6122L24.3777 52.9832H37.3393L26.8531 60.6289L30.8585 73L20.3723 65.3543L9.88613 73L13.8915 60.6289L3.40531 52.9832H16.3669L20.3723 40.6122Z" fill="url(#paint2_linear_243_5461)"/>
<defs>
<linearGradient id="paint0_linear_243_5461" x1="20.3723" y1="40.6121" x2="20.3723" y2="76.4192" gradientUnits="userSpaceOnUse">
<stop stop-color="#929292"/>
<stop offset="1" stop-color="white"/>
</linearGradient>
<linearGradient id="paint1_linear_243_5461" x1="20.3723" y1="40.6121" x2="20.3723" y2="76.4192" gradientUnits="userSpaceOnUse">
<stop stop-color="#929292"/>
<stop offset="1" stop-color="white"/>
</linearGradient>
<linearGradient id="paint2_linear_243_5461" x1="20.3723" y1="40.6121" x2="20.3723" y2="76.4192" gradientUnits="userSpaceOnUse">
<stop stop-color="#929292"/>
<stop offset="1" stop-color="white"/>
</linearGradient>
</defs>
</svg>
