<svg width="13" height="20" viewBox="0 0 13 20" fill="none" xmlns="http://www.w3.org/2000/svg">
<path d="M0 4.78227H13V20H0V4.78227Z" fill="black"/>
<path fill-rule="evenodd" clip-rule="evenodd" d="M1.18054 20H11.8195C12.6818 20 13 19.679 13 18.8087V8.30716C13 8.20868 12.996 8.11709 12.9873 8.03238C12.9677 7.84231 12.964 7.65831 12.7889 7.44878C12.7718 7.42832 12.593 7.29397 12.593 7.29397C12.4968 7.24635 12.4311 7.21129 12.3227 7.16732L7.08404 4.95329C6.81206 4.82745 6.69836 4.77842 6.5009 4.78247H6.4993C6.30184 4.77842 6.18814 4.82745 5.91596 4.95329L0.677349 7.16732C0.568877 7.21129 0.503191 7.24635 0.406972 7.29397C0.406972 7.29397 0.228194 7.42811 0.211119 7.44878C0.0359566 7.65831 0.0323408 7.84251 0.0126551 8.03238C0.00401749 8.11729 0 8.20868 0 8.30716V18.8085C0 19.679 0.318185 20 1.18054 20Z" fill="#666666"/>
<path d="M1.89324 9.44214L1.89565 9.41782L1.89806 9.39128L1.90288 9.36696L1.91012 9.34284L1.91474 9.32096L1.92197 9.29664L1.93161 9.27476L1.94125 9.2553L1.95069 9.23362L1.9748 9.19472L1.98906 9.17526L2.00111 9.15581L2.01537 9.13879L2.03225 9.12177L2.04651 9.10718L2.06579 9.09015L2.08247 9.07556L2.10175 9.06097L2.12083 9.04902L2.13992 9.03443L2.16161 9.02227L2.1831 9.01254L2.2046 9.00039L2.2287 8.99066L2.25261 8.98093L2.30042 8.96634L2.32211 8.95905L2.34601 8.95418L2.389 8.94446L2.41311 8.93959L2.43701 8.93716L2.4585 8.93473L2.48261 8.9323L2.50892 8.92987L2.53283 8.92744H2.63347L2.65737 8.92987H2.68368L2.73149 8.93473L2.75781 8.93716L2.78171 8.94203L2.80562 8.94446L2.82972 8.94932L2.90143 8.96391L2.92534 8.97121L2.94683 8.97607L2.99464 8.99066L3.01633 9.00039L3.04024 9.00768L3.06173 9.01498L3.08563 9.0247L3.12862 9.04416L3.15012 9.05611L3.17181 9.06584L3.1933 9.078L3.21239 9.09015L3.23408 9.10231L3.25316 9.11447L3.27245 9.12663L3.31061 9.15581L3.3299 9.1704L3.34898 9.18499L3.36585 9.19958L3.38494 9.2166L3.37047 9.23605L3.3538 9.25308L3.33934 9.27253L3.32267 9.29198L3.3082 9.309L3.29394 9.32846L3.27707 9.34791L3.26281 9.36493L3.24593 9.38439L3.23167 9.40141L3.2148 9.42086L3.20053 9.44031L3.18607 9.45733L3.1694 9.47679L3.15494 9.49624L3.13826 9.51326L3.1238 9.53272L3.10472 9.51813L3.08322 9.50354L3.06394 9.48895L3.04245 9.47436L3.02316 9.4622L3.00167 9.44761L2.98259 9.43545L2.96089 9.42572L2.94181 9.41356L2.92031 9.40384L2.89862 9.39411L2.87713 9.38439L2.85563 9.37709L2.83414 9.36736L2.78633 9.35277L2.76484 9.34548L2.74073 9.34062L2.69292 9.33089L2.66661 9.32846L2.64271 9.32359H2.6188L2.59249 9.32116H2.53986L2.51354 9.32359L2.48944 9.32846L2.44645 9.33818L2.42717 9.34548L2.4105 9.35521L2.39121 9.3698L2.37695 9.38682L2.36731 9.40627L2.36008 9.42795L2.35767 9.45227V9.45713L2.36008 9.48611L2.36972 9.51043L2.38177 9.52745L2.39844 9.54204L2.41773 9.55663L2.43681 9.56635L2.4583 9.57608L2.48241 9.58581L2.51113 9.59797L2.52781 9.60283L2.54689 9.60769L2.56858 9.61499L2.59008 9.61985L2.61398 9.62715L2.63809 9.63201L2.6644 9.6393L2.6883 9.64417L2.71462 9.65146L2.73852 9.65633L2.76263 9.66362L2.78653 9.66848L2.81044 9.67578L2.83213 9.68307L2.85603 9.68794L2.89902 9.70253L2.92072 9.70982L2.94703 9.71955L2.99484 9.739L3.01894 9.74873L3.04044 9.76089L3.06434 9.77305L3.08363 9.7852L3.10512 9.79736L3.1242 9.81195L3.14349 9.82411L3.16016 9.8387L3.17703 9.85572L3.19371 9.87274L3.20817 9.88976L3.22243 9.90679L3.23448 9.92381L3.24633 9.94326L3.25839 9.96515L3.26803 9.98197L3.27526 10.0014L3.28229 10.0233L3.28952 10.0428L3.29434 10.0671L3.29916 10.089L3.30399 10.1376L3.3064 10.1641V10.2201L3.30399 10.2444L3.30157 10.2663L3.29916 10.2906L3.29434 10.3123L3.28952 10.3342L3.28229 10.356L3.27747 10.3777L3.26803 10.3996L3.24874 10.4434L3.23689 10.4653L3.22484 10.4871L3.21058 10.5066L3.19612 10.526L3.17944 10.5455L3.16257 10.5625L3.1459 10.582L3.12661 10.599L3.10994 10.6112L3.09066 10.6257L3.07157 10.6403L3.05249 10.6525L3.0308 10.6647L3.0093 10.6744L2.98781 10.6865L2.96611 10.6963L2.94221 10.7036L2.91831 10.7133L2.89661 10.7206L2.87753 10.7254L2.83454 10.7352L2.81064 10.74L2.78914 10.7449L2.69333 10.7546H2.59048L2.53785 10.7498H2.51395L2.48763 10.7473L2.46373 10.7425L2.43741 10.74L2.41351 10.7352L2.39181 10.7303L2.34401 10.7206L2.32251 10.7157L2.29861 10.7084L2.27711 10.7011L2.25562 10.6963L2.23172 10.6865L2.21022 10.6792L2.16724 10.6598L2.14333 10.6501L2.12184 10.6379L2.10276 10.6282L2.08106 10.616L2.05957 10.6039L2.04048 10.5917L2.01879 10.5771L1.99971 10.565L1.98042 10.5504L1.94226 10.5212L1.95652 10.5017L1.96857 10.4823L1.98283 10.4628L1.9973 10.4434L2.01156 10.4215L2.02361 10.402L2.03807 10.3826L2.05234 10.3631L2.06439 10.3437L2.07865 10.3242L2.09311 10.3048L2.10517 10.2853L2.11943 10.2634L2.13389 10.244L2.14815 10.2245L2.16021 10.2051L2.17447 10.1856L2.19375 10.2002L2.21524 10.2124L2.23433 10.2245L2.25361 10.2391L2.27511 10.2488L2.29439 10.261L2.31588 10.2707L2.33497 10.2805L2.35666 10.2902L2.37574 10.2999L2.39724 10.3072L2.41652 10.3169L2.44284 10.3242L2.49064 10.3388L2.51475 10.3437L2.56256 10.3534L2.61057 10.3583L2.63206 10.3607H2.68469L2.711 10.3558L2.73511 10.351L2.7566 10.3461L2.77568 10.3364L2.79256 10.3267L2.81405 10.3072L2.82852 10.2853L2.83796 10.2634L2.84037 10.2391V10.2343L2.83796 10.2028L2.8261 10.1761L2.81646 10.1615L2.79979 10.1445L2.7781 10.1323L2.75901 10.1202L2.73511 10.1104L2.70859 10.1007L2.67987 10.091L2.66078 10.0861L2.6417 10.0788L2.62001 10.074L2.59851 10.0667L2.57461 10.0618L2.54809 10.0545L2.49547 10.0399L2.46915 10.0351L2.44525 10.0278L2.41893 10.0205L2.39483 10.0156L2.34702 10.001L2.32553 9.99372L2.30142 9.98642L2.25843 9.97183L2.23212 9.96231L2.20821 9.95015L2.18431 9.94042L2.16041 9.92827L2.13871 9.91611L2.11722 9.90395L2.09813 9.89179L2.07885 9.8772L2.05977 9.86504L2.04068 9.84802L2.0214 9.831L2.00473 9.81155L1.98785 9.79453L1.97359 9.77507L1.95913 9.75319L1.94728 9.73373L1.93523 9.71185L1.92558 9.6924L1.91835 9.67051L1.91132 9.64863L1.9065 9.62674L1.89686 9.57811L1.89445 9.55399L1.89204 9.52745V9.46909L1.89324 9.44214ZM3.56954 8.95783H4.94091V10.7244H3.55648V10.3238H4.48352V10.0349H3.65029V9.65714H4.48352V9.35662H3.54524V8.95641H3.56954V8.95783ZM5.31635 8.95783H5.75445V10.002L5.76651 9.98257L5.78077 9.96069L5.79282 9.94124L5.80708 9.92178L5.81914 9.8999L5.8336 9.88044L5.84545 9.86099L5.8575 9.83911L5.87176 9.81965L5.88382 9.8002L5.89828 9.78075L5.91013 9.75886L5.92459 9.73941L5.93645 9.71995L5.9485 9.69807L5.96296 9.67862L5.97481 9.65916L5.98928 9.63748L6.00113 9.61803L6.01559 9.59857L6.02744 9.57669L6.0395 9.55724L6.05396 9.53778L6.06581 9.5159L6.08027 9.49644L6.09212 9.47699L6.10659 9.45754L6.11864 9.43585L6.13049 9.4164L6.14495 9.39695L6.15681 9.37506L6.17127 9.35561L6.18332 9.33616L6.19758 9.31427L6.20964 9.29482H6.21908L6.23354 9.3167L6.24559 9.33616L6.25985 9.35804L6.27191 9.37749L6.28617 9.39918L6.29822 9.41863L6.31248 9.44052L6.32454 9.45997L6.339 9.48165L6.35085 9.5011L6.36531 9.52299L6.37717 9.54244L6.39163 9.56433L6.40368 9.58378L6.41794 9.60567L6.43 9.62512L6.44426 9.647L6.45872 9.66646L6.47077 9.68834L6.48503 9.7078L6.49709 9.72968L6.51135 9.74913L6.5234 9.77102L6.53766 9.79047L6.54972 9.81236L6.56418 9.83181L6.57603 9.85369L6.59049 9.87315L6.60235 9.89483L6.61681 9.91428L6.62886 9.93617L6.64312 9.95542L6.65518 9.9773L6.66944 9.99676V8.95743H7.12382V10.724H6.63288L6.62103 10.7046L6.60897 10.6829L6.59471 10.6636L6.58266 10.6418L6.57061 10.6223L6.55876 10.6004L6.5467 10.5812L6.53244 10.5593L6.50834 10.5204L6.49648 10.4987L6.48443 10.4792L6.47017 10.4574L6.45812 10.4379L6.44607 10.4162L6.43421 10.3968L6.41975 10.3773L6.4077 10.3556L6.39585 10.3364L6.38379 10.3145L6.37194 10.295L6.35748 10.2734L6.34543 10.2539L6.33358 10.2322L6.32152 10.213L6.30967 10.1935L6.29521 10.1716L6.28316 10.1522L6.2713 10.1303L6.25925 10.111L6.2474 10.0892L6.23294 10.0697L6.22088 10.048L6.20903 10.0286L6.19698 10.048L6.18493 10.0697L6.17067 10.0892L6.15861 10.111L6.14676 10.1303L6.13471 10.1522L6.12045 10.1716L6.1084 10.1935L6.09634 10.213L6.08449 10.2322L6.07003 10.2539L6.05818 10.2734L6.04612 10.295L6.03407 10.3145L6.01981 10.3364L6.00776 10.3556L5.9957 10.3773L5.98385 10.3968L5.9718 10.4162L5.95754 10.4379L5.94549 10.4574L5.93343 10.4792L5.92158 10.4987L5.90712 10.5204L5.89527 10.5398L5.88321 10.5593L5.87116 10.5812L5.8569 10.6004L5.84485 10.6223L5.833 10.6418L5.82094 10.6636L5.80648 10.6829L5.79463 10.7046L5.78258 10.724H5.29184V8.95743H5.31635V8.95783ZM8.08982 9.68429L8.09705 9.70617L8.10649 9.73049L8.11614 9.75238L8.12337 9.77426L8.13281 9.79615L8.14245 9.82046L8.14968 9.84235L8.15932 9.86423L8.16877 9.88591L8.176 9.9078L8.18564 9.93212L8.19267 9.954L8.21195 9.99777L8.21919 10.0197L8.22863 10.044L8.23827 10.0659L8.2455 10.0875L8.25514 10.1094L8.26458 10.1337L8.27181 10.1556L8.28146 10.1775L8.2909 10.1556L8.29813 10.1337L8.30777 10.1094L8.31741 10.0875L8.32444 10.0659L8.33409 10.044L8.34373 10.0197L8.35317 9.99777L8.3604 9.97589L8.37968 9.93212L8.38671 9.9078L8.39636 9.88591L8.406 9.86423L8.41323 9.84235L8.42267 9.82046L8.43231 9.79615L8.44196 9.77426L8.44899 9.75238L8.45863 9.73049L8.46827 9.70617L8.4755 9.68429L8.48494 9.66241H8.08018L8.08982 9.68429ZM7.33915 8.95783H7.8084L7.81784 8.97972L7.82507 9.0016L7.83471 9.02349L7.84435 9.0476L7.85138 9.06928L7.86103 9.09096L7.87067 9.11285L7.8777 9.13474L7.89698 9.1785L7.90421 9.20039L7.91365 9.22471L7.9233 9.24659L7.93053 9.26848L7.94017 9.29036H8.62756L8.637 9.26848L8.64424 9.24659L8.65388 9.22471L8.66352 9.20039L8.67055 9.1785L8.68983 9.13474L8.69707 9.11285L8.70651 9.09096L8.71615 9.06928L8.72338 9.0476L8.73282 9.02349L8.74246 9.0016L8.74969 8.97972L8.75934 8.95783H9.24284L9.2334 8.97972L9.21412 9.02349L9.20468 9.0476L9.19744 9.06928L9.1878 9.09096L9.17816 9.11285L9.16872 9.13474L9.15908 9.15662L9.14944 9.18094L9.13999 9.20282L9.13035 9.2245L9.12312 9.24639L9.11348 9.26827L9.10404 9.29016L9.0944 9.31448L9.08475 9.33636L9.07531 9.35824L9.06567 9.37993L9.05603 9.40181L9.0488 9.4237L9.03936 9.44801L9.02971 9.4697L9.02007 9.49158L9.01063 9.51347L8.99135 9.55724L8.98191 9.58155L8.97467 9.60344L8.95539 9.64721L8.94595 9.66909L8.93631 9.69098L8.92667 9.71529L8.91722 9.73718L8.90758 9.75906L8.90035 9.78095L8.89071 9.80263L8.88127 9.82452L8.87163 9.84883L8.86198 9.87072L8.85254 9.8926L8.83326 9.93637L8.82603 9.95826L8.81659 9.97994L8.80694 10.0043L8.7973 10.0261L8.78786 10.048L8.77822 10.0699L8.76858 10.0916L8.75914 10.1135L8.7519 10.1378L8.73262 10.1816L8.72318 10.2034L8.7039 10.2472L8.69445 10.2715L8.68481 10.2932L8.67758 10.3151L8.66794 10.337L8.6585 10.3589L8.64886 10.3808L8.63921 10.4051L8.62977 10.427L8.61049 10.4707L8.60346 10.4926L8.59382 10.5145L8.58417 10.5388L8.57453 10.5607L8.56509 10.5826L8.54581 10.6264L8.53637 10.648L8.52913 10.6724L8.50985 10.7161L8.50041 10.738H8.05728L8.038 10.6942L8.02855 10.6724L8.01891 10.648L8.01168 10.6264L8.00224 10.6045L7.97331 10.5388L7.96387 10.5145L7.94459 10.4707L7.93756 10.4488L7.91828 10.4051L7.90863 10.3808L7.89919 10.3589L7.87991 10.3151L7.87047 10.2932L7.86324 10.2715L7.85359 10.2472L7.84415 10.2253L7.81523 10.1597L7.80579 10.1378L7.79614 10.1135L7.78891 10.0916L7.77947 10.0699L7.75055 10.0043L7.7411 9.97994L7.73146 9.95826L7.72182 9.93637L7.71479 9.91449L7.70515 9.8926L7.69551 9.86849L7.68606 9.8466L7.67642 9.82229L7.66678 9.8004L7.65714 9.77872L7.6477 9.75683L7.64047 9.73495L7.63082 9.71306L7.62138 9.68875L7.59246 9.62309L7.58302 9.60121L7.57337 9.57932L7.56614 9.55501L7.5567 9.53312L7.53742 9.48935L7.52798 9.46747L7.51833 9.44578L7.50869 9.42147L7.49905 9.39958L7.49202 9.3777L7.48238 9.35602L7.47274 9.33413L7.46329 9.31225L7.45365 9.28793L7.43437 9.24416L7.42493 9.22227L7.4177 9.20059L7.40805 9.17871L7.39861 9.15439L7.37933 9.11062L7.36989 9.08874L7.3506 9.04537L7.34337 9.02126L7.33393 8.99937L7.31465 8.9556H7.33915V8.95783ZM9.43347 9.18296L9.45276 9.16837L9.46943 9.15621L9.48871 9.14162L9.5078 9.12947L9.52688 9.11488L9.54616 9.10272L9.56525 9.09056L9.58694 9.0784L9.62993 9.05408L9.65142 9.04456L9.67291 9.0324L9.69682 9.02268L9.71831 9.01295L9.74242 9.00322L9.76391 8.9935L9.82839 8.97161L9.8523 8.96432L9.87379 8.95702L9.89789 8.95216L9.91939 8.94729L9.9672 8.93757L9.9911 8.93514L10.0174 8.9327L10.0413 8.93027L10.0676 8.92784L10.0917 8.92541L10.1181 8.92298H10.2211L10.245 8.92541L10.2713 8.92784L10.3432 8.93514L10.391 8.94486L10.4125 8.94973L10.4364 8.95459L10.4579 8.96188L10.4818 8.96675L10.5035 8.97404L10.525 8.98377L10.5465 8.99106L10.5704 9.00079L10.5921 9.01052L10.6351 9.02997L10.6568 9.04213L10.6759 9.05408L10.6974 9.06624L10.7167 9.0784L10.7357 9.09056L10.755 9.10515L10.7932 9.13433L10.8101 9.14892L10.8267 9.16351L10.8436 9.18053L10.8603 9.19512L10.8772 9.21214L10.8938 9.22916L10.9083 9.24619L10.9226 9.26564L10.937 9.28266L10.9491 9.30211L10.9633 9.32157L10.9754 9.34082L10.9872 9.36027L10.9993 9.38216L11.0113 9.40161L11.0208 9.42349L11.0401 9.46726L11.0495 9.48895L11.0567 9.5084L11.0664 9.53028L11.0712 9.55217L11.0782 9.57385L11.0831 9.59797L11.0903 9.61985L11.0951 9.64396L11.0975 9.66585L11.1023 9.69017L11.1047 9.71205L11.1072 9.73637L11.1094 9.76068L11.1118 9.7848V9.86504L11.1094 9.89159V9.9157L11.1047 9.96677L11.0999 9.99088L11.0975 10.0152L11.0927 10.0371L11.0855 10.0612L11.0806 10.0855L11.0736 10.1074L11.0664 10.1317L11.0591 10.1536L11.0495 10.1779L11.0401 10.1996L11.0208 10.2434L11.0113 10.2653L10.9993 10.2871L10.9872 10.3066L10.9754 10.326L10.9513 10.365L10.937 10.3844L10.9226 10.4039L10.9083 10.4233L10.8938 10.4403L10.8772 10.4574L10.8627 10.4744L10.846 10.4914L10.8291 10.5084L10.8125 10.523L10.7932 10.54L10.7765 10.5546L10.7574 10.5692L10.7382 10.5814L10.7191 10.596L10.6998 10.6081L10.6807 10.6203L10.6592 10.6324L10.6375 10.6446L10.616 10.6568L10.5945 10.6665L10.5728 10.6762L10.5489 10.6884L10.5298 10.6957L10.5059 10.703L10.4842 10.7127L10.4628 10.7175L10.4413 10.7248L10.4174 10.7297L10.3959 10.737L10.372 10.7419L10.3481 10.7443L10.3239 10.7492L10.2281 10.7589H10.1253L10.0725 10.754H10.0485L10.0246 10.7516L9.99833 10.7467L9.97664 10.7443L9.92883 10.7346L9.86435 10.72L9.84265 10.7127L9.82116 10.7078L9.80208 10.7005L9.78038 10.6932L9.7374 10.6738L9.7157 10.664L9.69421 10.6519L9.67271 10.6422L9.65343 10.63L9.63194 10.6178L9.61285 10.6057L9.59116 10.5935L9.57207 10.5789L9.55299 10.5668L9.53371 10.5522L9.51463 10.5376L9.49534 10.5206L9.47626 10.506L9.49072 10.4865L9.50739 10.4695L9.52186 10.4501L9.53853 10.4306L9.55299 10.4112L9.56726 10.3941L9.58413 10.3747L9.59839 10.3552L9.61285 10.3382L9.62953 10.3188L9.64399 10.2993L9.66066 10.2798L9.67512 10.2628L9.68939 10.2434L9.70626 10.2239L9.72052 10.2045L9.7374 10.1874L9.75166 10.168L9.77094 10.1826L9.79002 10.1996L9.80931 10.2118L9.82839 10.2263L9.84748 10.2385L9.86676 10.2507L9.88584 10.2628L9.90734 10.275L9.92662 10.2847L9.9457 10.2944L9.96499 10.3017L10.008 10.3163L10.0297 10.3212L10.0775 10.3309L10.1014 10.3333L10.1542 10.3382H10.2044L10.2283 10.3358L10.25 10.3333L10.2739 10.3285L10.2954 10.3236L10.3171 10.3163L10.3386 10.309L10.3816 10.2896L10.4009 10.2774L10.42 10.2653L10.4393 10.2531L10.4559 10.2385L10.4728 10.2239L10.4895 10.2093L10.5039 10.1923L10.5206 10.1753L10.5351 10.1558L10.5469 10.1388L10.559 10.1194L10.5708 10.0975L10.5829 10.078L10.5925 10.0561L10.5997 10.0342L10.6092 10.0124L10.6164 9.98804L10.6212 9.96393L10.6261 9.94205L10.6309 9.9153L10.6333 9.89118L10.6355 9.86707V9.81114L10.6333 9.78683L10.6309 9.76494L10.6285 9.74062L10.6237 9.71894L10.6188 9.69706L10.614 9.67537L10.6068 9.65349L10.5997 9.63404L10.5901 9.60972L10.5805 9.58783L10.5686 9.56595L10.5445 9.52704L10.5302 9.50759L10.5158 9.49057L10.4991 9.47355L10.4846 9.45652L10.468 9.44193L10.4487 9.42734L10.4296 9.41276L10.4105 9.4006L10.3912 9.38844L10.3483 9.36898L10.3266 9.35926L10.2788 9.34467L10.2546 9.3398L10.2307 9.33494L10.2068 9.33251L10.1805 9.33008H10.1255L10.0727 9.33494L10.0488 9.33737L10.0248 9.34224L10.0007 9.3471L9.97684 9.35439L9.95534 9.35926L9.93385 9.36898L9.91457 9.37871L9.89307 9.38844L9.8762 9.39816L9.85712 9.41032V9.631H10.2066V9.98501H9.4168V9.19613L9.43347 9.18296ZM9.16611 14.7103V15.5189H10.2022V17.1693H9.12493V17.9779H11.0821V12.1429H9.10866V12.9514H10.2024V14.7103H9.16611ZM2.78131 14.5352V13.2181C2.78131 12.9847 2.88817 12.8765 3.11014 12.8765H3.27466C3.50486 12.8765 3.61173 12.9847 3.61173 13.2181V16.9025C3.61173 17.1359 3.50486 17.2441 3.27466 17.2441H3.12661C2.90465 17.2441 2.79758 17.1359 2.79758 16.9025V15.7604H1.93442V16.9525C1.93442 17.6776 2.27973 18.0277 2.99504 18.0277H3.4227C4.13802 18.0277 4.49176 17.6695 4.49176 16.9442V13.1766C4.49176 12.4513 4.13802 12.0928 3.4227 12.0928H2.9868C2.27129 12.0928 1.91795 12.4511 1.91795 13.1766V14.535H2.78131V14.5352ZM5.83661 12.1429H4.95678V17.9777H5.83661V12.1429ZM7.11337 15.3855C7.11337 15.1521 7.22024 15.0437 7.4422 15.0437H7.80418V17.1943H7.4422C7.22024 17.1943 7.11337 17.0861 7.11337 16.8526V15.3855ZM7.30239 17.9777H8.68381V12.1429H7.80398V14.2601H7.30239C6.58708 14.2601 6.23354 14.6183 6.23354 15.3436V16.894C6.23354 17.6192 6.58708 17.9777 7.30239 17.9777Z" fill="#666666"/>
<path fill-rule="evenodd" clip-rule="evenodd" d="M9.00641 6.86721H3.96968L6.54048 6.01187L9.00641 6.86721Z" fill="#666666"/>
<path d="M0 0H13V15.2177H0V0Z" fill="black"/>
<path fill-rule="evenodd" clip-rule="evenodd" d="M11.8195 0H1.18054C0.318185 0 0 0.320979 0 1.19131V11.6926C0 11.7911 0.00401749 11.8827 0.0126551 11.9674C0.0323408 12.1575 0.0359566 12.3415 0.211119 12.551C0.228194 12.5715 0.406972 12.7058 0.406972 12.7058C0.503191 12.7535 0.568877 12.7885 0.677349 12.8325L5.91596 15.0465C6.18794 15.1723 6.30164 15.2214 6.4991 15.2173H6.5007C6.69816 15.2214 6.81186 15.1723 7.08404 15.0465L12.3227 12.8325C12.4311 12.7885 12.4968 12.7535 12.593 12.7058C12.593 12.7058 12.7718 12.5717 12.7889 12.551C12.964 12.3415 12.9677 12.1573 12.9873 11.9674C12.996 11.8827 13 11.7911 13 11.6926V1.19131C13 0.320979 12.6816 0 11.8195 0Z" fill="white"/>
<path d="M11.1068 10.5579L11.1043 10.5822L11.1019 10.6087L11.0971 10.633L11.0899 10.6572L11.0853 10.679L11.078 10.7034L11.0684 10.7252L11.0587 10.7447L11.0493 10.7664L11.0252 10.8053L11.0109 10.8247L10.9989 10.8442L10.9846 10.8612L10.9678 10.8782L10.9535 10.8928L10.9342 10.9098L10.9175 10.9244L10.8982 10.939L10.8792 10.951L10.8601 10.9656L10.8384 10.9777L10.8169 10.9875L10.7954 10.9996L10.7713 11.0093L10.7474 11.0191L10.6996 11.0337L10.6779 11.041L10.654 11.0458L10.611 11.0555L10.5869 11.0604L10.563 11.0628L10.5415 11.0653L10.5174 11.0677L10.4911 11.0701L10.4672 11.0726H10.3665L10.3426 11.0701H10.3163L10.2685 11.0653L10.2422 11.0628L10.2183 11.058L10.1944 11.0555L10.1703 11.0507L10.0986 11.0361L10.0747 11.0288L10.0532 11.0239L10.0054 11.0093L9.98367 10.9996L9.95976 10.9923L9.93827 10.985L9.91437 10.9753L9.87138 10.9558L9.84988 10.9439L9.82819 10.9342L9.8067 10.922L9.78761 10.9098L9.76592 10.8977L9.74684 10.8855L9.72755 10.8734L9.68939 10.8442L9.6701 10.8296L9.65102 10.815L9.63415 10.8004L9.61506 10.7834L9.62953 10.7639L9.6462 10.7469L9.66066 10.7275L9.67733 10.708L9.6918 10.691L9.70606 10.6715L9.72293 10.6521L9.73719 10.6351L9.75407 10.6156L9.76833 10.5986L9.7852 10.5791L9.79947 10.5597L9.81393 10.5427L9.8306 10.5232L9.84506 10.5038L9.86174 10.4867L9.8762 10.4673L9.89528 10.4819L9.91678 10.4965L9.93606 10.5111L9.95755 10.5256L9.97684 10.5378L9.99833 10.5524L10.0174 10.5646L10.0391 10.5743L10.0582 10.5864L10.0797 10.5962L10.1014 10.6059L10.1229 10.6156L10.1444 10.6229L10.1659 10.6326L10.2137 10.6472L10.2352 10.6545L10.2593 10.6594L10.3071 10.6691L10.3334 10.6715L10.3573 10.6764H10.3812L10.4075 10.6788H10.4601L10.4865 10.6764L10.5106 10.6715L10.5535 10.6618L10.5728 10.6545L10.5895 10.6448L10.6088 10.6302L10.6231 10.6132L10.6327 10.5937L10.6399 10.572L10.6423 10.5477V10.5429L10.6399 10.5139L10.6303 10.4896L10.6182 10.4726L10.6016 10.458L10.5823 10.4434L10.5632 10.4336L10.5417 10.4239L10.5176 10.4142L10.4889 10.402L10.4722 10.3972L10.4531 10.3923L10.4314 10.385L10.4099 10.3801L10.386 10.3729L10.3619 10.368L10.3356 10.3607L10.3117 10.3558L10.2854 10.3485L10.2615 10.3437L10.2374 10.3364L10.2135 10.3315L10.1896 10.3242L10.1679 10.3169L10.144 10.3121L10.101 10.2975L10.0793 10.2902L10.053 10.2805L10.0052 10.261L9.98106 10.2513L9.95956 10.2391L9.93566 10.227L9.91638 10.2148L9.89488 10.2026L9.8758 10.188L9.85651 10.1759L9.83984 10.1613L9.82297 10.1443L9.8063 10.1273L9.79183 10.1102L9.77757 10.0932L9.76552 10.0762L9.75367 10.0567L9.74161 10.0351L9.73197 10.0182L9.72474 9.99878L9.71771 9.9769L9.71048 9.95745L9.70566 9.93313L9.70084 9.91124L9.69602 9.86261L9.6936 9.83607V9.78014L9.69602 9.75582L9.69843 9.73394L9.70084 9.70962L9.70566 9.68794L9.71048 9.66605L9.71771 9.64417L9.72253 9.62249L9.73197 9.6006L9.75126 9.55683L9.76311 9.53495L9.77516 9.51306L9.78942 9.49361L9.80388 9.47415L9.82056 9.4547L9.83743 9.43768L9.8541 9.41823L9.87339 9.4012L9.89006 9.38905L9.90934 9.37446L9.92843 9.35987L9.94751 9.34771L9.9692 9.33555L9.9907 9.32582L10.0122 9.31366L10.0339 9.30394L10.0578 9.29664L10.0817 9.28692L10.1034 9.27962L10.1225 9.27476L10.1655 9.26503L10.1894 9.26017L10.2109 9.2553L10.3067 9.24558H10.4095L10.4622 9.25044H10.4861L10.5126 9.25287L10.5365 9.25774L10.5628 9.26017L10.5867 9.26503L10.6084 9.26989L10.6562 9.27962L10.6777 9.28448L10.7016 9.29178L10.7231 9.29908L10.7446 9.30394L10.7687 9.31366L10.7902 9.32096L10.8332 9.34041L10.8573 9.35014L10.8788 9.3623L10.8978 9.37202L10.9195 9.38418L10.941 9.39634L10.9601 9.4085L10.9818 9.42309L11.0009 9.43525L11.0202 9.44984L11.0583 9.47902L11.0441 9.49847L11.032 9.51792L11.0178 9.53738L11.0033 9.55683L10.989 9.57872L10.977 9.59817L10.9625 9.61762L10.9483 9.63708L10.9362 9.65653L10.922 9.67598L10.9075 9.69544L10.8954 9.71489L10.8812 9.73677L10.8667 9.75623L10.8525 9.77568L10.8404 9.79513L10.8261 9.81459L10.8069 9.8L10.7854 9.78784L10.7663 9.77568L10.747 9.76109L10.7255 9.75136L10.7062 9.7392L10.6847 9.72948L10.6656 9.71975L10.6439 9.71002L10.6249 9.7003L10.6034 9.693L10.5841 9.68328L10.5578 9.67598L10.51 9.66139L10.4859 9.65653L10.438 9.6468L10.39 9.64194L10.3685 9.63951H10.3159L10.2896 9.64437L10.2655 9.64923L10.244 9.6541L10.2249 9.66382L10.208 9.67355L10.1866 9.693L10.1721 9.71489L10.1626 9.73677L10.1602 9.76109V9.76595L10.1626 9.79736L10.1745 9.82411L10.1841 9.8387L10.2008 9.85572L10.2225 9.86788L10.2416 9.88004L10.2655 9.88976L10.2918 9.89949L10.3205 9.90922L10.3396 9.91408L10.3587 9.92138L10.3804 9.92624L10.4019 9.93354L10.4258 9.9384L10.4523 9.94569L10.5049 9.96028L10.5313 9.96515L10.5552 9.97244L10.5815 9.97974L10.6056 9.9846L10.6534 9.99919L10.6749 10.0065L10.699 10.0138L10.742 10.0284L10.7685 10.0379L10.7924 10.0501L10.8163 10.0598L10.8402 10.0719L10.8619 10.0841L10.8834 10.0963L10.9025 10.1084L10.9218 10.123L10.9408 10.1352L10.9599 10.1522L10.9792 10.1692L10.9959 10.1887L11.0127 10.2057L11.027 10.2251L11.0415 10.2468L11.0533 10.2663L11.0654 10.2882L11.075 10.3076L11.0823 10.3293L11.0893 10.3512L11.0941 10.3731L11.1037 10.4217L11.1062 10.446L11.1086 10.4726V10.5309L11.1068 10.5579ZM9.43026 11.0422H8.05969V9.27658H9.44352V9.6774H8.51708V9.96616H9.35031V10.3421H8.51708V10.6424H9.45557V11.043H9.43026V11.0422ZM7.68365 11.0422H7.24555V9.99899L7.23349 10.0184L7.21923 10.0403L7.20718 10.0598L7.19292 10.0792L7.18086 10.1009L7.1664 10.1204L7.15455 10.1398L7.1425 10.1617L7.12824 10.1812L7.11618 10.2006L7.10172 10.2201L7.08987 10.242L7.07541 10.2614L7.06355 10.2809L7.0515 10.3027L7.03704 10.3222L7.02519 10.3416L7.01072 10.3633L6.99887 10.3828L6.98441 10.4022L6.97256 10.4241L6.96051 10.4436L6.94604 10.463L6.93419 10.4849L6.91973 10.5044L6.90788 10.5238L6.89341 10.5433L6.88136 10.565L6.86951 10.5844L6.85505 10.6039L6.84319 10.6257L6.82873 10.6452L6.81668 10.6647L6.80242 10.6865L6.79036 10.706H6.78092L6.76646 10.6841L6.75441 10.6647L6.74015 10.6428L6.72809 10.6233L6.71383 10.6016L6.70178 10.5822L6.68752 10.5603L6.67546 10.5408L6.661 10.5192L6.64915 10.4997L6.63469 10.4778L6.62284 10.4584L6.60837 10.4365L6.59632 10.417L6.58206 10.3951L6.57 10.3757L6.55574 10.3538L6.54128 10.3344L6.52923 10.3125L6.51497 10.293L6.50291 10.2711L6.48865 10.2517L6.4766 10.2298L6.46234 10.2103L6.45028 10.1885L6.43582 10.169L6.42397 10.1471L6.40951 10.1277L6.39765 10.106L6.38319 10.0865L6.37114 10.0646L6.35688 10.0454L6.34482 10.0235L6.33056 10.0041V11.0434H5.87578V9.2778H6.36692L6.37877 9.29725L6.39082 9.31893L6.40509 9.33818L6.41714 9.36007L6.42919 9.37952L6.44104 9.40141L6.4531 9.42066L6.46736 9.44254L6.49146 9.48145L6.50331 9.50313L6.51537 9.52258L6.52963 9.54447L6.54168 9.56392L6.55373 9.58561L6.56559 9.60506L6.58005 9.62451L6.5921 9.64619L6.60395 9.66545L6.616 9.68733L6.62786 9.70678L6.64232 9.72847L6.65437 9.74792L6.66622 9.7698L6.67828 9.78905L6.69013 9.80851L6.70459 9.83039L6.71664 9.84985L6.72849 9.87173L6.74055 9.89098L6.7524 9.91287L6.76686 9.93232L6.77891 9.954L6.79077 9.97345L6.80282 9.954L6.81487 9.93232L6.82913 9.91287L6.84119 9.89098L6.85304 9.87173L6.86509 9.84985L6.87935 9.83039L6.8914 9.80851L6.90346 9.78905L6.91531 9.7698L6.92977 9.74792L6.94162 9.72847L6.95368 9.70678L6.96573 9.68733L6.97999 9.66545L6.99204 9.64619L7.00409 9.62451L7.01595 9.60506L7.028 9.58561L7.04226 9.56392L7.05431 9.54447L7.06637 9.52258L7.07822 9.50313L7.09268 9.48145L7.10453 9.462L7.11658 9.44254L7.12864 9.42066L7.1429 9.40141L7.15495 9.37952L7.1668 9.36007L7.17886 9.33818L7.19332 9.31893L7.20517 9.29725L7.21722 9.2778H7.70796V11.0434H7.68365V11.0422ZM4.90998 10.3155L4.90275 10.2936L4.8933 10.2693L4.88366 10.2474L4.87643 10.2255L4.86699 10.2037L4.85735 10.1793L4.85012 10.1575L4.84047 10.1356L4.83103 10.1137L4.8238 10.0918L4.81416 10.0675L4.80713 10.0456L4.78785 10.0018L4.78061 9.97994L4.77117 9.95562L4.76153 9.93374L4.7543 9.91206L4.74466 9.89017L4.73522 9.86585L4.72798 9.84397L4.71834 9.82208L4.7089 9.84397L4.70167 9.86585L4.69203 9.89017L4.68239 9.91206L4.67536 9.93374L4.66571 9.95562L4.65607 9.97994L4.64663 10.0018L4.6394 10.0237L4.62012 10.0675L4.61308 10.0918L4.5938 10.1356L4.58657 10.1575L4.57713 10.1793L4.56749 10.2037L4.55784 10.2255L4.55081 10.2474L4.54117 10.2693L4.53153 10.2936L4.5243 10.3155L4.51486 10.3374H4.91962L4.90998 10.3155ZM5.1914 11.0422L5.18196 11.0203L5.17473 10.9984L5.16509 10.9765L5.15545 10.9524L5.14842 10.9307L5.13877 10.909L5.12913 10.8872L5.1221 10.8653L5.10282 10.8215L5.09559 10.7996L5.08614 10.7755L5.0765 10.7536L5.06927 10.7317L5.05963 10.7098H4.37224L4.36279 10.7317L4.35556 10.7536L4.34592 10.7755L4.33628 10.7996L4.32925 10.8215L4.30997 10.8653L4.30273 10.8872L4.29329 10.909L4.28365 10.9307L4.27642 10.9524L4.26698 10.9765L4.25734 10.9984L4.2501 11.0203L4.24046 11.0422H3.75696L3.7664 11.0203L3.78568 10.9765L3.79512 10.9524L3.80235 10.9307L3.812 10.909L3.82164 10.8872L3.83108 10.8653L3.84072 10.8434L3.85036 10.8191L3.8598 10.7972L3.86945 10.7755L3.87668 10.7536L3.88632 10.7317L3.89576 10.7098L3.9054 10.6855L3.91505 10.6636L3.92449 10.6418L3.93413 10.6201L3.94377 10.5982L3.951 10.5763L3.96044 10.552L3.97009 10.5303L3.97973 10.5084L3.98917 10.4865L4.00845 10.4428L4.01789 10.4184L4.02513 10.3966L4.04441 10.3528L4.05385 10.3309L4.06349 10.309L4.07313 10.2847L4.08258 10.2628L4.09222 10.2409L4.09945 10.2191L4.10909 10.1974L4.11853 10.1755L4.12817 10.1512L4.13782 10.1293L4.14726 10.1074L4.1569 10.0855L4.16654 10.0638L4.17377 10.0419L4.18321 10.0203L4.19285 9.99595L4.2025 9.97406L4.21194 9.95218L4.23122 9.90841L4.24066 9.88652L4.24789 9.86221L4.25754 9.84052L4.26718 9.81864L4.27662 9.79675L4.2959 9.75298L4.30535 9.72867L4.31499 9.70699L4.32222 9.6851L4.33186 9.66322L4.3413 9.64133L4.35094 9.61945L4.36059 9.59533L4.37003 9.57345L4.38931 9.52968L4.39634 9.50779L4.40598 9.48591L4.41563 9.46159L4.42527 9.43971L4.43471 9.41782L4.45399 9.37405L4.46343 9.35237L4.47066 9.32805L4.48995 9.28428L4.49939 9.2624H4.94252L4.9618 9.30617L4.97124 9.32805L4.98089 9.35237L4.98812 9.37405L4.99756 9.39594L5.02648 9.46159L5.03593 9.48591L5.05521 9.52968L5.06224 9.55156L5.08152 9.59533L5.09117 9.61945L5.10061 9.64133L5.11989 9.6851L5.12933 9.70699L5.13656 9.72867L5.14621 9.75298L5.15565 9.77487L5.18457 9.84052L5.19401 9.86221L5.20366 9.88652L5.21089 9.90841L5.22033 9.93029L5.24925 9.99595L5.2587 10.0203L5.26834 10.0419L5.27798 10.0638L5.28501 10.0855L5.30429 10.1293L5.31374 10.1512L5.32338 10.1755L5.33302 10.1974L5.34266 10.2191L5.3521 10.2409L5.35933 10.2628L5.36898 10.2847L5.37842 10.309L5.40734 10.3747L5.41678 10.3966L5.42643 10.4184L5.43366 10.4428L5.4431 10.4647L5.46238 10.5084L5.47182 10.5303L5.48147 10.552L5.49111 10.5763L5.50075 10.5982L5.50778 10.6201L5.51742 10.6418L5.52706 10.6636L5.53651 10.6855L5.54615 10.7098L5.56543 10.7536L5.57487 10.7755L5.5821 10.7972L5.59175 10.8191L5.60119 10.8434L5.62047 10.8872L5.62991 10.909L5.6492 10.9524L5.65643 10.9765L5.66587 10.9984L5.68515 11.0422H5.1914ZM3.56653 10.817L3.54724 10.8316L3.53057 10.8438L3.51129 10.8584L3.4922 10.8705L3.47312 10.8851L3.45384 10.8973L3.43475 10.9094L3.41306 10.9216L3.37007 10.9459L3.34858 10.9554L3.32709 10.9676L3.30318 10.9773L3.28169 10.9871L3.25758 10.9968L3.23609 11.0065L3.17161 11.0284L3.1477 11.0357L3.12621 11.043L3.10211 11.0478L3.08061 11.0527L3.0328 11.0624L3.0089 11.0649L2.98259 11.0673L2.95868 11.0697L2.93237 11.0722L2.90826 11.0746L2.88195 11.077H2.7789L2.75499 11.0746L2.72868 11.0722L2.65677 11.0649L2.60896 11.0551L2.58747 11.0503L2.56356 11.0454L2.54207 11.0381L2.51816 11.0333L2.49647 11.026L2.47498 11.0162L2.45348 11.0089L2.42958 10.9992L2.40788 10.9895L2.3649 10.97L2.3432 10.9579L2.32412 10.9459L2.30263 10.9338L2.28334 10.9216L2.26426 10.9094L2.24497 10.8949L2.20681 10.8657L2.18993 10.8511L2.17326 10.8365L2.15639 10.8195L2.13972 10.8049L2.12284 10.7879L2.10617 10.7708L2.09171 10.7538L2.07744 10.7344L2.06298 10.7173L2.05093 10.6979L2.03667 10.6784L2.02461 10.6592L2.01276 10.6397L2.00071 10.6178L1.98866 10.5984L1.97922 10.5765L1.95993 10.5327L1.95049 10.5111L1.94326 10.4916L1.93362 10.4697L1.9288 10.4478L1.92177 10.4261L1.91695 10.4018L1.90971 10.3799L1.90489 10.3558L1.90248 10.3339L1.89766 10.3096L1.89525 10.2877L1.89284 10.2634L1.89063 10.2391L1.88822 10.215V10.1348L1.89063 10.1082V10.0839L1.89525 10.033L1.90007 10.0089L1.90248 9.9846L1.9073 9.96272L1.91454 9.9386L1.91936 9.91428L1.92639 9.8924L1.93362 9.86829L1.94085 9.8464L1.95049 9.82208L1.95993 9.8002L1.97922 9.75643L1.98866 9.73454L2.00071 9.71266L2.01276 9.69321L2.02461 9.67375L2.04872 9.63485L2.06298 9.61539L2.07744 9.59594L2.09171 9.57649L2.10617 9.55946L2.12284 9.54244L2.13731 9.52542L2.17085 9.49158L2.18752 9.47699L2.20681 9.45997L2.22348 9.44538L2.24256 9.43079L2.26185 9.41863L2.28093 9.40404L2.30021 9.39188L2.3193 9.37972L2.34079 9.36757L2.36249 9.35541L2.38398 9.34325L2.40547 9.33352L2.42717 9.3238L2.45107 9.31164L2.47015 9.30434L2.49406 9.29705L2.51575 9.28732L2.53725 9.28246L2.55874 9.27516L2.58264 9.2703L2.60414 9.263L2.62804 9.25814L2.65195 9.25571L2.67585 9.25085L2.77167 9.24112H2.87452L2.92735 9.24598H2.95125L2.97515 9.24841L3.00147 9.25328L3.02316 9.25571L3.07097 9.26544L3.13545 9.28003L3.15715 9.28732L3.17864 9.29218L3.19772 9.29948L3.21942 9.30678L3.2624 9.32623L3.2841 9.33595L3.30559 9.34811L3.32709 9.35784L3.34637 9.37L3.36786 9.38216L3.38695 9.39431L3.40864 9.40647L3.42772 9.42106L3.44681 9.43322L3.46609 9.44781L3.48517 9.4624L3.50446 9.47942L3.52354 9.49401L3.50908 9.51347L3.49241 9.53049L3.47794 9.54994L3.46127 9.56939L3.44681 9.58885L3.43254 9.60587L3.41567 9.62532L3.40141 9.64478L3.38695 9.6618L3.37027 9.68125L3.35581 9.7007L3.33914 9.72016L3.32468 9.73718L3.31041 9.75663L3.29354 9.77608L3.27928 9.79554L3.2624 9.81256L3.24814 9.83201L3.22886 9.81742L3.20977 9.8004L3.19049 9.78824L3.17141 9.77365L3.15232 9.7615L3.13304 9.74934L3.11396 9.73718L3.09246 9.72502L3.07318 9.71529L3.0541 9.70557L3.03481 9.69827L2.99183 9.68368L2.97013 9.67882L2.92232 9.66909L2.89842 9.66666L2.84559 9.6618H2.79537L2.77147 9.66423L2.74977 9.66666L2.72587 9.67152L2.70437 9.67639L2.68268 9.68368L2.66119 9.69098L2.6182 9.71043L2.59892 9.72259L2.57983 9.73475L2.56055 9.74691L2.54388 9.7615L2.527 9.77608L2.51033 9.79068L2.49587 9.8077L2.47919 9.82472L2.46473 9.84417L2.45288 9.86119L2.44083 9.88065L2.42898 9.90253L2.41692 9.92198L2.40728 9.94387L2.40005 9.96575L2.39061 9.98764L2.38338 10.012L2.37856 10.0361L2.37373 10.0578L2.36891 10.0845L2.3665 10.1088L2.36429 10.1329V10.1889L2.3665 10.2132L2.36891 10.2351L2.37132 10.2594L2.37615 10.2811L2.38097 10.3029L2.38579 10.3246L2.39302 10.3465L2.40005 10.366L2.40969 10.3903L2.41933 10.4122L2.43119 10.4341L2.45529 10.473L2.46955 10.4924L2.48402 10.5094L2.50069 10.5265L2.51515 10.5435L2.53182 10.5581L2.55111 10.5727L2.57019 10.5872L2.58927 10.5994L2.60856 10.6116L2.67304 10.6407L2.72085 10.6553L2.74495 10.6602L2.76886 10.6651L2.79276 10.6675L2.81907 10.6699H2.87411L2.92694 10.6651L2.95085 10.6626L2.97475 10.6578L2.99886 10.6529L3.02276 10.6456L3.04425 10.6407L3.06575 10.631L3.08503 10.6213L3.10653 10.6116L3.1234 10.6018L3.14248 10.5897V10.3686H2.79336V10.0144H3.5832V10.8035L3.56653 10.817ZM2.79758 5.28967H3.83369V4.48114H2.79758V2.83066H3.87487V2.02233H1.91795V7.8569H3.89154V7.04837H2.79778V5.28967H2.79758ZM10.2187 6.7817C10.2187 7.01514 10.1118 7.12335 9.88986 7.12335H9.72534C9.49514 7.12335 9.38828 7.01514 9.38828 6.7817V3.09753C9.38828 2.86409 9.49514 2.75588 9.72534 2.75588H9.87339C10.0954 2.75588 10.2024 2.86409 10.2024 3.09753V4.2396H11.0658V3.04748C11.0658 2.32244 10.7205 1.97228 10.0052 1.97228H9.5775C8.86218 1.97228 8.50844 2.33054 8.50844 3.05579V6.82324C8.50844 7.54848 8.86218 7.90695 9.5775 7.90695H10.0134C10.7289 7.90695 11.0823 7.54868 11.0823 6.82324V5.46455H10.2187V6.7817ZM7.16339 7.8569H8.04322V2.02233H7.16339V7.8569ZM5.88663 4.61448C5.88663 4.84792 5.77976 4.95633 5.5578 4.95633H5.19602V2.80573H5.5578C5.77976 2.80573 5.88663 2.91414 5.88663 3.14738V4.61448ZM5.69761 2.02233H4.31619V7.8571H5.19602V5.73973H5.69761C6.41292 5.73973 6.76646 5.38147 6.76646 4.65622V3.10584C6.76646 2.3806 6.41292 2.02233 5.69761 2.02233Z" fill="#343434"/>
<path fill-rule="evenodd" clip-rule="evenodd" d="M3.99339 13.1326H9.03012L6.45932 13.9879L3.99339 13.1326Z" fill="#343434"/>
<path d="M3.90862 16.1807L5.43225 16.1809V16.6334H4.91641V18.2H4.42266V16.6334H3.90862V16.1807ZM3.24613 16.8595H3.69529C3.69529 16.68 3.71558 16.4834 3.37027 16.2749C3.1017 16.1126 2.70719 16.1928 2.55573 16.2785C2.296 16.4257 2.2289 16.6251 2.23473 16.8397C2.24417 17.1963 2.5037 17.2761 2.74656 17.3673C2.90424 17.4265 3.08242 17.4622 3.19792 17.5692C3.24212 17.6103 3.2606 17.6909 3.16458 17.7284C3.02778 17.7815 2.88135 17.7876 2.72908 17.6889C2.67685 17.6551 2.65978 17.602 2.65978 17.5448L2.18431 17.5388C2.18431 17.7049 2.21404 17.8415 2.31829 17.9606C2.46835 18.1321 2.67404 18.1829 2.89742 18.1985C3.17723 18.2182 3.34115 18.1688 3.47654 18.0806C3.61414 17.9908 3.70131 17.8543 3.72703 17.6686C3.7427 17.556 3.75495 17.4455 3.62679 17.2846C3.51189 17.1726 3.31523 17.0617 3.06635 16.9849C2.94703 16.9394 2.77086 16.8903 2.73953 16.8129C2.70719 16.7462 2.757 16.6796 2.79899 16.655C2.86708 16.6165 2.96551 16.6161 3.05149 16.649C3.15112 16.6869 3.24613 16.7604 3.24613 16.8595ZM5.63413 16.8313L5.62971 17.4962C5.62971 18.4192 7.21461 18.4448 7.21461 17.4962V16.8313C7.21461 15.9284 5.63413 15.9965 5.63413 16.8313ZM6.42337 16.5975C6.57764 16.6001 6.73171 16.701 6.73171 16.8925V17.4751C6.73171 17.8528 6.11482 17.8466 6.11482 17.4751V16.8925C6.11502 16.6907 6.26909 16.5949 6.42337 16.5975ZM7.6021 16.1764V18.1937H8.08821V17.4741H8.27764L8.66533 18.191H9.16109V18.0115L8.80313 17.4062C9.30813 17.112 9.18499 16.1786 8.5452 16.1786L7.6021 16.1764ZM8.08942 16.6076L8.36502 16.6129C8.67899 16.6129 8.66171 17.0364 8.36502 17.0384H8.08942V16.6076ZM9.49132 16.1718L10.7645 16.1703V16.5971H9.97382V16.9722H10.6494V17.3955H9.96639V17.77H10.7904V18.1882H9.49132V16.1718Z" fill="white"/>
</svg>
