<svg width="22" height="22" viewBox="0 0 22 22" fill="none" xmlns="http://www.w3.org/2000/svg">
<path d="M19 10C19 8.21907 18.4716 6.47819 17.4818 4.99769C16.4919 3.5172 15.085 2.36366 13.4393 1.68309C11.7935 1.00253 9.98285 0.825527 8.23645 1.1745C6.49005 1.52347 4.88645 2.38273 3.62861 3.6435C2.37078 4.90428 1.51528 6.50989 1.17038 8.2571C0.825492 10.0043 1.00672 11.8146 1.69113 13.4587C2.37554 15.1029 3.53236 16.507 5.01516 17.4934C6.49797 18.4798 8.24008 19.0042 10.021 19M1.6 7H18.4M1.6 13H10.5M9.50001 1C7.81535 3.69961 6.92221 6.81787 6.92221 10C6.92221 13.1821 7.81535 16.3004 9.50001 19M10.5 1C12.4338 4.0978 13.3182 7.73619 13.022 11.376M17.001 19C16.4706 19 15.9619 18.7893 15.5868 18.4142C15.2117 18.0391 15.001 17.5304 15.001 17C15.001 16.4696 15.2117 15.9609 15.5868 15.5858C15.9619 15.2107 16.4706 15 17.001 15M17.001 19C17.5314 19 18.0401 18.7893 18.4152 18.4142C18.7903 18.0391 19.001 17.5304 19.001 17C19.001 16.4696 18.7903 15.9609 18.4152 15.5858C18.0401 15.2107 17.5314 15 17.001 15M17.001 19V20.5M17.001 15V13.5M20.032 15.25L18.733 16M15.27 18L13.97 18.75M13.97 15.25L15.27 16M18.733 18L20.033 18.75" stroke="#CCCCCC" stroke-width="2" stroke-linecap="round" stroke-linejoin="round"/>
</svg>
