<svg width="18" height="20" viewBox="0 0 18 20" fill="none" xmlns="http://www.w3.org/2000/svg">
<path d="M7.20407 0C7.13499 0 7.06545 0.00187639 6.99637 0.00609828C4.8986 0.131817 3.23088 2.1161 3.27204 4.43814C3.27582 4.64548 3.29333 4.85141 3.32455 5.055L0.0369027 5.71502L0 17.1357L14.4446 20L18 18.7147L17.8888 4.13557L16.0371 3.76827L14.4815 2.81365L12.6311 3.18518C12.1755 1.71268 11.0315 0.531957 9.5507 0.529612C9.91121 0.807318 10.1175 1.05172 10.2481 1.27313C11.3116 1.56491 11.7142 2.40507 12.0331 3.30527L5.58555 4.60045C5.83536 2.6293 7.06024 1.31957 8.31967 1.03061L7.50733 0.794652C6.3624 1.26 5.04857 2.78926 5.09541 4.69849L3.72859 4.97291C3.69926 4.78621 3.6827 4.59716 3.67939 4.40718C3.64296 2.35065 5.10724 0.593409 6.94906 0.482233C7.01388 0.47848 7.07869 0.476604 7.14351 0.476604C8.78568 0.484578 10.1369 1.82854 10.328 3.64442L10.8399 3.54075C10.6072 1.50158 9.06718 0.00140729 7.20407 0ZM10.6852 7.86349V11.5267H6.53698V8.45127L10.6852 7.86349ZM6.40735 8.4691V11.5262H3.16654V8.92788L6.40735 8.4691ZM3.16654 11.6547H6.40735V14.7461L3.16654 14.2714V11.6547ZM6.53698 11.6547H10.6852V15.3728L6.53698 14.7649V11.6547Z" fill="white"/>
</svg>
