<svg width="95" height="76" viewBox="0 0 95 76" fill="none" xmlns="http://www.w3.org/2000/svg">
<path d="M95 0H38C17.0132 0 0 17.0132 0 38C0 58.9868 17.0132 76 38 76H95V0Z" fill="#1E1E1E"/>
<path d="M64.0757 40.9375L38.9194 53.75V48.75L58.2163 39.4531L58.0601 39.7656V38.9844L58.2163 39.2969L38.9194 30V25L64.0757 37.8125V40.9375Z" fill="white"/>
<path d="M64.0757 40.9375L64.7564 42.2741L65.5757 41.8569V40.9375H64.0757ZM38.9194 53.75H37.4194V56.1973L39.6002 55.0866L38.9194 53.75ZM38.9194 48.75L38.2684 47.3987L37.4194 47.8077V48.75H38.9194ZM58.2163 39.4531L59.558 40.1239L61.5222 36.1954L57.5653 38.1018L58.2163 39.4531ZM58.0601 39.7656H56.5601L59.4017 40.4364L58.0601 39.7656ZM58.0601 38.9844L59.4017 38.3136L56.5601 38.9844H58.0601ZM58.2163 39.2969L57.5653 40.6482L61.5222 42.5546L59.558 38.6261L58.2163 39.2969ZM38.9194 30H37.4194V30.9423L38.2684 31.3513L38.9194 30ZM38.9194 25L39.6002 23.6634L37.4194 22.5527V25H38.9194ZM64.0757 37.8125H65.5757V36.8931L64.7564 36.4759L64.0757 37.8125ZM63.3949 39.6009L38.2387 52.4134L39.6002 55.0866L64.7564 42.2741L63.3949 39.6009ZM40.4194 53.75V48.75H37.4194V53.75H40.4194ZM39.5705 50.1013L58.8674 40.8045L57.5653 38.1018L38.2684 47.3987L39.5705 50.1013ZM56.8747 38.7823L56.7184 39.0948L59.4017 40.4364L59.558 40.1239L56.8747 38.7823ZM59.5601 39.7656V38.9844H56.5601V39.7656H59.5601ZM56.7184 39.6552L56.8747 39.9677L59.558 38.6261L59.4017 38.3136L56.7184 39.6552ZM58.8674 37.9455L39.5705 28.6487L38.2684 31.3513L57.5653 40.6482L58.8674 37.9455ZM40.4194 30V25H37.4194V30H40.4194ZM38.2387 26.3366L63.3949 39.1491L64.7564 36.4759L39.6002 23.6634L38.2387 26.3366ZM62.5757 37.8125V40.9375H65.5757V37.8125H62.5757Z" fill="white"/>
</svg>
