<svg width="95" height="76" viewBox="0 0 95 76" fill="none" xmlns="http://www.w3.org/2000/svg">
<path d="M0 0H57C77.9868 0 95 17.0132 95 38C95 58.9868 77.9868 76 57 76H0V0Z" fill="#1E1E1E"/>
<path d="M30.9243 40.9375L56.0806 53.75V48.75L36.7837 39.4531L36.9399 39.7656V38.9844L36.7837 39.2969L56.0806 30V25L30.9243 37.8125V40.9375Z" fill="white"/>
<path d="M30.9243 40.9375L30.2436 42.2741L29.4243 41.8569V40.9375H30.9243ZM56.0806 53.75H57.5806V56.1973L55.3998 55.0866L56.0806 53.75ZM56.0806 48.75L56.7316 47.3987L57.5806 47.8077V48.75H56.0806ZM36.7837 39.4531L35.442 40.1239L33.4778 36.1954L37.4347 38.1018L36.7837 39.4531ZM36.9399 39.7656H38.4399L35.5983 40.4364L36.9399 39.7656ZM36.9399 38.9844L35.5983 38.3136L38.4399 38.9844H36.9399ZM36.7837 39.2969L37.4347 40.6482L33.4778 42.5546L35.442 38.6261L36.7837 39.2969ZM56.0806 30H57.5806V30.9423L56.7316 31.3513L56.0806 30ZM56.0806 25L55.3998 23.6634L57.5806 22.5527V25H56.0806ZM30.9243 37.8125H29.4243V36.8931L30.2436 36.4759L30.9243 37.8125ZM31.6051 39.6009L56.7613 52.4134L55.3998 55.0866L30.2436 42.2741L31.6051 39.6009ZM54.5806 53.75V48.75H57.5806V53.75H54.5806ZM55.4295 50.1013L36.1326 40.8045L37.4347 38.1018L56.7316 47.3987L55.4295 50.1013ZM38.1253 38.7823L38.2816 39.0948L35.5983 40.4364L35.442 40.1239L38.1253 38.7823ZM35.4399 39.7656V38.9844H38.4399V39.7656H35.4399ZM38.2816 39.6552L38.1253 39.9677L35.442 38.6261L35.5983 38.3136L38.2816 39.6552ZM36.1326 37.9455L55.4295 28.6487L56.7316 31.3513L37.4347 40.6482L36.1326 37.9455ZM54.5806 30V25H57.5806V30H54.5806ZM56.7613 26.3366L31.6051 39.1491L30.2436 36.4759L55.3998 23.6634L56.7613 26.3366ZM32.4243 37.8125V40.9375H29.4243V37.8125H32.4243Z" fill="white"/>
</svg>
