<svg width="22" height="20" viewBox="0 0 22 20" fill="none" xmlns="http://www.w3.org/2000/svg">
<g clip-path="url(#clip0_243_5503)">
<path d="M9.71922 0C4.59618 0 0.398997 4.05109 0 9.1986L5.22664 11.414C5.66973 11.1043 6.2054 10.9212 6.78075 10.9212C6.83145 10.9212 6.88436 10.9235 6.93506 10.9257L9.2585 7.47146C9.2585 7.45564 9.2585 7.43981 9.2585 7.42172C9.2585 5.34192 10.9074 3.65095 12.9354 3.65095C14.9635 3.65095 16.6124 5.34192 16.6124 7.42172C16.6124 9.50153 14.9635 11.1925 12.9354 11.1925C12.9068 11.1925 12.8803 11.1925 12.8517 11.1902L9.53846 13.6182C9.54066 13.6611 9.54067 13.7063 9.54067 13.7516C9.54067 15.3137 8.30179 16.5819 6.78075 16.5819C5.44488 16.5819 4.32725 15.603 4.07374 14.3077L0.337274 12.7252C1.49459 16.9233 5.2553 20 9.71922 20C15.1046 20 19.4715 15.5216 19.4715 9.99887C19.4693 4.47835 15.1046 0 9.71922 0Z" fill="white"/>
<path d="M6.11282 15.1735L4.91582 14.6649C5.12745 15.117 5.49558 15.4968 5.98276 15.707C7.03646 16.1569 8.25329 15.6437 8.69197 14.5631C8.9058 14.0409 8.9058 13.4622 8.69417 12.9377C8.48255 12.4132 8.08576 12.0041 7.57654 11.7848C7.06953 11.5678 6.52724 11.5768 6.04889 11.7622L7.28556 12.2867C8.06371 12.619 8.42964 13.5345 8.1056 14.3325C7.78375 15.1306 6.88877 15.5058 6.11282 15.1735Z" fill="white"/>
<path d="M15.3867 7.42398C15.3867 6.0382 14.2867 4.91014 12.9354 4.91014C11.5841 4.91014 10.4842 6.0382 10.4842 7.42398C10.4842 8.80976 11.5841 9.93783 12.9354 9.93783C14.2867 9.93557 15.3867 8.8075 15.3867 7.42398ZM11.0992 7.41946C11.0992 6.3773 11.9236 5.53182 12.9399 5.53182C13.9561 5.53182 14.7805 6.3773 14.7805 7.41946C14.7805 8.46163 13.9561 9.30711 12.9399 9.30711C11.9236 9.30711 11.0992 8.46163 11.0992 7.41946Z" fill="white"/>
<path d="M29.8851 6.843L29.2326 8.0208C28.73 7.65909 28.0466 7.44207 27.4515 7.44207C26.7703 7.44207 26.3493 7.73143 26.3493 8.24912C26.3493 8.87758 27.0965 9.02453 28.2098 9.43371C29.4046 9.86775 30.0923 10.3764 30.0923 11.4977C30.0923 13.0327 28.9152 13.8962 27.2222 13.8962C26.3978 13.8962 25.4014 13.677 24.6364 13.2L25.1126 11.8933C25.7342 12.2301 26.4771 12.4291 27.1406 12.4291C28.0334 12.4291 28.4589 12.0922 28.4589 11.5926C28.4589 11.0207 27.8108 10.8489 26.7659 10.494C25.5755 10.087 24.7489 9.55126 24.7489 8.3079C24.7489 6.9063 25.8422 6.1015 27.4162 6.1015C28.514 6.10376 29.3957 6.46095 29.8851 6.843Z" fill="white"/>
<path d="M34.9927 7.58675V13.7674H33.4541V7.58675H31.221V6.23262H37.2192V7.58675H34.9927Z" fill="white"/>
<path d="M40.4619 7.58223V9.27998H43.4069V10.6341H40.4619V12.4019H43.8787V13.7674H38.9232V6.23262H43.8787V7.58223H40.4619Z" fill="white"/>
<path d="M47.3109 12.3047L46.8238 13.7674H45.2101L47.9634 6.23262H49.5109L52.3436 13.7651H50.6771L50.1811 12.3025L47.3109 12.3047ZM48.7328 8.0321L47.7298 11.0478H49.7578L48.7328 8.0321Z" fill="white"/>
<path d="M60.2442 9.1466L58.2338 13.5481H57.3652L55.3879 9.18503V13.7674H53.9131V6.23262H55.3835L57.8524 11.6718L60.2332 6.23262H61.7167V13.7674H60.2442V9.1466Z" fill="white"/>
<path d="M64.6905 7.18436C64.6905 7.8309 64.2165 8.23556 63.6742 8.23556C63.1298 8.23556 62.6558 7.83316 62.6558 7.18436C62.6558 6.53781 63.1298 6.13541 63.6742 6.13541C64.2187 6.13541 64.6905 6.53781 64.6905 7.18436ZM62.8256 7.18436C62.8256 7.72691 63.2069 8.06601 63.6742 8.06601C64.1394 8.06601 64.5185 7.72465 64.5185 7.18436C64.5185 6.6418 64.1394 6.30496 63.6742 6.30496C63.2091 6.30496 62.8256 6.64406 62.8256 7.18436ZM63.6897 6.64858C63.9542 6.64858 64.0424 6.791 64.0424 6.94699C64.0424 7.08941 63.9608 7.18436 63.8616 7.23183L64.0975 7.68622H63.9035L63.7051 7.28382H63.5001V7.68622H63.3392V6.65084H63.6897V6.64858ZM63.5001 7.1301H63.6787C63.7955 7.1301 63.8638 7.0555 63.8638 6.96055C63.8638 6.8656 63.8153 6.80457 63.6787 6.80457H63.5001V7.1301Z" fill="white"/>
</g>
<defs>
<clipPath id="clip0_243_5503">
<rect width="22" height="20" fill="white"/>
</clipPath>
</defs>
</svg>
